{"title":"Brighton Rock 2010 DVDRip AC3 XViD-EP1C","uid":6449315,"size":1689864554,"categoryP":"video","categoryS":"movies","magnet":"?xt=urn:btih:44f35ad1fb7ad8a4d2d2fcd42ec8bcfce5a39f02&amp;dn=Brighton+Rock+2010+DVDRip+AC3+XViD-EP1C&amp;tr=udp%3A%2F%2Ftracker.openbittorrent.com%3A80&amp;tr=udp%3A%2F%2Fopen.demonii.com%3A1337&amp;tr=udp%3A%2F%2Ftracker.coppersurfer.tk%3A6969&amp;tr=udp%3A%2F%2Fexodus.desync.com%3A6969","seeders":1,"leechers":1,"uploader":"neon","files":3,"time":1307366112,"description":"\n:::::::::::: EP1C Presents ::::::::::::\n\n::File:: Brighton.Rock.2010.DVDRip.AC3.XViD-EP1C\n\n::Video Source:: DVD5 wobferry (thx!)\n::Audio Source:: ^^ ^^\n\n::Language:::::: English\n::IMDB:::::::::: &lt;a href=&quot; http://www.imdb.com/title/tt1233192/&quot; rel=&quot;nofollow&quot; target=&quot;_NEW&quot;&gt; http://www.imdb.com/title/tt1233192/&lt;/a&gt;\n\nCharts the headlong fall of Pinkie, a razor-wielding disadvantaged teenager\nwith a religious death wish.\n\n::Specs:::::::::\n\nFormat : AVI\nFormat/Info : Audio Video Interleave\nFile size : 1.56 GiB\nDuration : 1h 46mn\nOverall bit rate : 2 099 Kbps\nWriting application : VirtualDubMod 1.5.10.2 (build 2540/release)\nWriting library : VirtualDubMod build 2540/release\n\nVideo\nID : 0\nFormat : MPEG-4 Visual\nFormat profile : Advanced Simple@L5\nFormat settings, BVOP : Yes\nFormat settings, QPel : No\nFormat settings, GMC : No warppoints\nFormat settings, Matrix : Default (MPEG)\nMuxing mode : Packed bitstream\nCodec ID : XVID\nCodec ID/Hint : XviD\nDuration : 1h 46mn\nBit rate : 1 705 Kbps\nWidth : 720 pixels\nHeight : 304 pixels\nDisplay aspect ratio : 2.35:1\nFrame rate : 25.000 fps\nColor space : YUV\nChroma subsampling : 4:2:0\nBit depth : 8 bits\nScan type : Progressive\nBits/(Pixel*Frame) : 0.312\nStream size : 1.27 GiB (81%)\nWriting library : XviD 58\n\nAudio\nID : 1\nFormat : AC-3\nFormat/Info : Audio Coding 3\nMode extension : CM (complete main)\nCodec ID : 2000\nDuration : 1h 46mn\nBit rate mode : Constant\nBit rate : 384 Kbps\nChannel(s) : 6 channels\nChannel positions : Front: L C R, Side: L R, LFE\nSampling rate : 48.0 KHz\nBit depth : 16 bits\nStream size : 292 MiB (18%)\nAlignment : Split accross interleaves\nInterleave, duration : 40 ms (1.00 video frame)\nInterleave, preload duration : 500 ms\n\n::NOTES:::::::::\nPresenting the first DVDRip of Brighton Rock. Thanks wob for the source!\nEnjoy //EP1C\n &lt;a href=&quot;\nhttp://www.grinshare.com/img/LSDTA3.png&quot; rel=&quot;nofollow&quot; target=&quot;_NEW&quot;&gt;\nhttp://www.grinshare.com/img/LSDTA3.png&lt;/a&gt; &lt;a href=&quot;\nhttp://www.grinshare.com/img/KEHDYT.png&quot; rel=&quot;nofollow&quot; target=&quot;_NEW&quot;&gt;\nhttp://www.grinshare.com/img/KEHDYT.png&lt;/a&gt; &lt;a href=&quot;\nhttp://www.grinshare.com/img/ARKA23.png&quot; rel=&quot;nofollow&quot; target=&quot;_NEW&quot;&gt;\nhttp://www.grinshare.com/img/ARKA23.png&lt;/a&gt;\n\nposter &lt;a href=&quot;\nhttp://www.grinshare.com/img/YL2YQJ.jpg&quot; rel=&quot;nofollow&quot; target=&quot;_NEW&quot;&gt;\nhttp://www.grinshare.com/img/YL2YQJ.jpg&lt;/a&gt;","torrent":{"xt":"urn:btih:44f35ad1fb7ad8a4d2d2fcd42ec8bcfce5a39f02","amp;dn":"Brighton+Rock+2010+DVDRip+AC3+XViD-EP1C","amp;tr":["udp%3A%2F%2Ftracker.openbittorrent.com%3A80","udp%3A%2F%2Fopen.demonii.com%3A1337","udp%3A%2F%2Ftracker.coppersurfer.tk%3A6969","udp%3A%2F%2Fexodus.desync.com%3A6969"],"infoHash":"44f35ad1fb7ad8a4d2d2fcd42ec8bcfce5a39f02","infoHashBuffer":{"type":"Buffer","data":[68,243,90,209,251,122,216,164,210,210,252,212,46,200,188,252,229,163,159,2]},"announce":[],"urlList":[]}}